Coordinates
version=1
nRows=7
nColumns=46
inDegrees=yes

Units are S.I. units (second, meters, Newtons, ...)
Angles are in degrees.

endheader
time	pelvis_tilt	pelvis_list	pelvis_rotation	pelvis_tx	pelvis_ty	pelvis_tz	bb_angle	bb_tx	bb_ty	bb_tz	hip_flexion_r	hip_adduction_r	hip_rotation_r	knee_angle_r	knee_angle_r_beta	ankle_angle_r	subtalar_angle_r	mtp_angle_r	crank_angle_r	hip_flexion_l	hip_adduction_l	hip_rotation_l	knee_angle_l	knee_angle_l_beta	ankle_angle_l	subtalar_angle_l	mtp_angle_l	crank_angle_l	lumbar_extension	lumbar_bending	lumbar_rotation	arm_flex_r	arm_add_r	arm_rot_r	elbow_flex_r	pro_sup_r	wrist_flex_r	wrist_dev_r	arm_flex_l	arm_add_l	arm_rot_l	elbow_flex_l	pro_sup_l	wrist_flex_l	wrist_dev_l
      2.50500000	    -19.01334178	      2.56450966	      4.07268031	      0.32894155	      1.11243438	     -0.24418847	      0.00000000	      0.50000000	      0.00000000	      0.25000000	     36.27913073	     -8.17941258	     -7.83361921	     36.20311016	      0.63186347	     -9.01884305	     -9.80220666	      0.00000000	      0.00000000	     72.45513335	      2.37008312	      6.70862787	    114.02046389	      1.99003251	     -0.24804683	     -8.72479039	      0.00000000	      0.00000000	    -56.45809104	      2.90450024	     -6.34129190	     54.30107578	    -13.64394452	     25.77349598	     68.67780935	     47.95750107	      0.00000000	      0.00000000	     52.41261127	    -21.49345337	     21.55749280	     70.78653731	     47.51549683	      0.00000000	      0.00000000
      2.51000000	    -18.94765143	      2.63410270	      4.23680747	      0.32909655	      1.11346786	     -0.24480853	      0.00000000	      0.50000000	      0.00000000	      0.25000000	     35.47140530	     -8.40775108	     -8.38520982	     35.35532468	      0.61706682	     -9.96076224	     -9.50736326	      0.00000000	      0.00000000	     72.96725609	      2.53278829	      6.60922587	    114.32394741	      1.99532930	      0.23315707	     -8.63580750	      0.00000000	      0.00000000	    -56.47040548	      2.68545184	     -6.43425044	     54.29311462	    -13.53991103	     25.29438296	     67.85826678	     47.88095773	      0.00000000	      0.00000000	     52.93426350	    -21.28504874	     22.30077116	     70.14702264	     47.52722287	      0.00000000	      0.00000000
      2.51500000	    -19.12093117	      2.78485474	      4.34762550	      0.32914609	      1.11414755	     -0.24540331	      0.00000000	      0.50000000	      0.00000000	      0.25000000	     34.99803638	     -8.68951784	     -8.75513220	     34.64021214	      0.60458576	    -10.71220813	     -9.05067827	      0.00000000	      0.00000000	     73.73807084	      2.71873674	      6.39482826	    114.59474632	      2.00005563	      0.61262582	     -8.67608986	      0.00000000	      0.00000000	    -56.31730848	      2.37754141	     -6.68535291	     54.16865843	    -13.64533988	     25.22558127	     67.71923850	     47.86935298	      0.00000000	      0.00000000	     53.08117423	    -21.19008040	     22.40527064	     70.14915783	     47.54354605	      0.00000000	      0.00000000
      2.52000000	    -19.09775979	      2.82227084	      4.54762754	      0.32924482	      1.11525758	     -0.24612162	      0.00000000	      0.50000000	      0.00000000	      0.25000000	     34.23688604	     -8.91717003	     -9.39651456	     33.81360749	      0.59015878	    -11.63102760	     -8.69988413	      0.00000000	      0.00000000	     74.28437019	      2.87296445	      6.29542273	    114.81175483	      2.00384314	      1.06046889	     -8.51473993	      0.00000000	      0.00000000	    -56.35644455	      2.21638865	     -6.72831378	     54.08629158	    -13.73361988	     24.88937370	     67.19149930	     47.83356241	      0.00000000	      0.00000000	     53.52290311	    -20.91548716	     22.96365918	     69.76880542	     47.56941245	      0.00000000	      0.00000000
      2.52500000	    -19.35602157	      2.94368745	      4.64479736	      0.32949080	      1.11593012	     -0.24676823	      0.00000000	      0.50000000	      0.00000000	      0.25000000	     33.84372812	     -9.17623646	     -9.80295695	     33.10805810	      0.57784462	    -12.41590062	     -8.18681240	      0.00000000	      0.00000000	     75.09391582	      2.93804713	      6.01083039	    114.98352557	      2.00684111	      1.44349929	     -8.56331307	      0.00000000	      0.00000000	    -56.15022144	      1.90917744	     -6.94960303	     53.93942211	    -13.85676911	     24.81615905	     67.05620930	     47.82107659	      0.00000000	      0.00000000	     53.62092349	    -20.81098492	     23.07374345	     69.77409867	     47.58661675	      0.00000000	      0.00000000
      2.53000000	    -19.48142225	      3.01486296	      4.83558783	      0.32934340	      1.11699739	     -0.24747760	      0.00000000	      0.50000000	      0.00000000	      0.25000000	     33.29978918	     -9.41688627	    -10.32327540	     32.35331464	      0.56467186	    -13.43973881	     -7.82153402	      0.00000000	      0.00000000	     75.79131095	      3.12722734	      5.87018988	    115.09903439	      2.00885712	      1.80980116	     -8.42393135	      0.00000000	      0.00000000	    -56.06483662	      1.67278108	     -6.88315205	     53.72062529	    -13.99667224	     24.07680401	     66.63897994	     47.90997076	      0.00000000	      0.00000000	     54.30925437	    -20.46576004	     24.10327707	     68.96904124	     47.65308854	      0.00000000	      0.00000000
      2.53500000	    -19.74656745	      3.11123555	      4.95727985	      0.32918855	      1.11793924	     -0.24811370	      0.00000000	      0.50000000	      0.00000000	      0.25000000	     32.95091390	     -9.64218280	    -10.71021480	     31.66138368	      0.55259539	    -14.18557772	     -7.37363982	      0.00000000	      0.00000000	     76.58938772	      3.21796214	      5.63136855	    115.12070166	      2.00923528	      2.10361094	     -8.43357726	      0.00000000	      0.00000000	    -55.94264187	      1.39057313	     -7.09780241	     53.69566026	    -14.14777452	     24.00794502	     66.54562827	     47.90103405	      0.00000000	      0.00000000	     54.46824118	    -20.35664451	     24.15592556	     69.07063940	     47.67844229	      0.00000000	      0.00000000
